# xmcd CD database file
#
# Track frame offsets:
#	150
#	26746
#	51788
#	78397
#	104973
#	129600
#	152411
#	175922
#	203792
#	231377
#
# Disc length: 3301 seconds
#
# Revision: 0
# Processed by: cddbd v1.5.2PL0 Copyright (c) Steve Scherf et al.
# Submitted via: CDex 1.51
#
DISCID=870ce30a
DTITLE=The Jazzinvaders - Up and Out
DYEAR=2006
DGENRE=Jazz
TTITLE0=The Jazzinvaders - Bonga Bonga Jazz
TTITLE1=Go Ahead
TTITLE2=Dutch Flies
TTITLE3=Movements
TTITLE4=Love and Happiness
TTITLE5=Wo Ya
TTITLE6=Licks and brains
TTITLE7=Up and Out
TTITLE8=Black
TTITLE9=Die Erste Kugel
EXTD=YEAR: 2006
EXTT0=
EXTT1=
EXTT2=
EXTT3=
EXTT4=
EXTT5=
EXTT6=
EXTT7=
EXTT8=
EXTT9=
PLAYORDER=
